<?xml version="1.0" encoding="utf-8"?>
<!-- Generator: Adobe Illustrator 23.1.0, SVG Export Plug-In . SVG Version: 6.00 Build 0)  -->
<svg version="1.1" id="Layer_1" xmlns="http://www.w3.org/2000/svg" xmlns:xlink="http://www.w3.org/1999/xlink" x="0px" y="0px"
	 viewBox="0 0 124.667 208.506" style="enable-background:new 0 0 124.667 208.506;" xml:space="preserve">
<g>
	<path style="fill:#F1A91E;" d="M124.667,48.105c0-15.216-12.362-27.596-27.556-27.596c-3.373,0-6.705,0.623-9.903,1.85
		L46.448,38.006c-10.584,4.062-17.694,14.409-17.694,25.745v144.755l63.438-23.914c19.562-7.509,32.475-26.296,32.475-47.25v-15.24
		c0-10.234-5.596-19.178-13.881-23.943c8.725-9.21,13.881-21.578,13.881-34.813V48.105z M51.852,52.085l40.759-15.646
		c1.467-0.563,2.981-0.849,4.499-0.849c6,0,12.476,4.785,12.476,12.515v14.718c0,14.865-9.12,28.208-22.97,33.606
		c0,0-41.936,16.309-42.782,16.741v-49.42C43.834,58.577,47.022,53.939,51.852,52.085z M109.586,136.819
		c0,14.865-9.12,28.208-22.97,33.606l-42.782,16.315v-57.659l48.357-18.486c0.009-0.004,0.018-0.008,0.028-0.011l0.392-0.15
		c1.467-0.563,2.981-0.849,4.499-0.849c6,0,12.476,4.785,12.476,12.515V136.819z"/>
	<g>
		<path style="fill:#F1A91E;" d="M80.832,55.398v3.27c0,5.137-3.222,9.825-8.019,11.666l-15.105,5.798v16.153l20.51-7.872
			c10.659-4.091,17.695-14.328,17.695-25.745v-8.832L80.832,55.398z"/>
		<path style="fill:#F1A91E;" d="M80.832,132.664c0,5.137-3.222,9.825-8.019,11.666l-15.105,5.798v16.154l20.51-7.873
			c10.659-4.091,17.695-14.328,17.695-25.745v-8.831l-15.081,5.561V132.664z"/>
		<path style="fill:#F1A91E;" d="M68.357,0c-3.373,0-6.705,0.623-9.903,1.85L27.479,13.443C10.952,19.629,0,35.422,0,53.069v15.69
			v119.135l15.075-5.608l0.003-111.519l0.002-13.624c0-13.548,8.349-25.696,20.997-30.551L86.852,7.158
			C81.958,2.712,75.468,0,68.357,0z"/>
	</g>
</g>
</svg>
