<?xml version="1.0" encoding="UTF-8"?>
<!-- Generator: Adobe Illustrator 23.1.0, SVG Export Plug-In . SVG Version: 6.00 Build 0)  -->
<svg version="1.1" id="Layer_1" xmlns="http://www.w3.org/2000/svg" xmlns:xlink="http://www.w3.org/1999/xlink" x="0px" y="0px" viewBox="0 0 712.955 152.125" style="enable-background:new 0 0 712.955 152.125;" xml:space="preserve">
<path style="fill:#FFFFFF;" d="M89.816,152.125H7.71c-4.684,0-7.71-3.026-7.71-7.711V7.71C0,3.026,3.026,0,7.71,0h80.646  c35.087,0,51.642,13.694,52.098,43.098v2.123c0,13.806-4.231,23.57-13.255,30.406c9.49,7.088,14.297,17.941,14.297,32.319v1.875  C141.497,138.683,125.075,152.125,89.816,152.125z M33.759,119.617h54.182c13.824,0,18.964-3.502,18.964-12.922v-3.334  c0-9.349-5.048-13.337-16.88-13.337H33.759V119.617z M33.759,61.684h55.224c11.847,0,16.463-3.447,16.463-12.296v-3.333  c0-9.723-5.14-13.338-18.964-13.338H33.759V61.684z"/>
<g>
	<path style="fill:#FFFFFF;" d="M170.17,79.353v65.05c0,4.69,3.02,7.72,7.7,7.72h17.08c4.69,0,7.72-3.03,7.72-7.72v-65.05"/>
	<path style="fill:#FFFFFF;" d="M202.67,100.393v-46.64c0-4.68-3.03-7.7-7.72-7.7h-17.08c-4.75,0-7.7,2.95-7.7,7.7v46.64"/>
	<path style="fill:#FFFFFF;" d="M194.954,33.75h-17.088c-4.75,0-7.7-2.958-7.7-7.719V7.699c0-4.749,2.95-7.699,7.7-7.699h17.088   c4.688,0,7.719,3.022,7.719,7.699v18.332C202.672,30.72,199.642,33.75,194.954,33.75z"/>
</g>
<path style="fill:#FFFFFF;" d="M301.983,152.125h-18.547c-4.683,0-7.709-3.026-7.709-7.711V32.925h-42.514  c-4.683,0-7.708-3.026-7.708-7.71V7.71c0-4.684,3.025-7.71,7.708-7.71h118.992c4.683,0,7.709,3.026,7.709,7.71v17.505  c0,4.684-3.026,7.71-7.709,7.71h-42.514v111.489C309.692,149.099,306.666,152.125,301.983,152.125z"/>
<path style="fill:#FFFFFF;" d="M473.814,152.125h-82.106c-4.683,0-7.709-3.026-7.709-7.711V7.71c0-4.684,3.026-7.71,7.709-7.71  h80.647c35.087,0,51.642,13.694,52.097,43.098v2.123c0,13.806-4.23,23.569-13.254,30.406c9.491,7.088,14.297,17.94,14.297,32.319  v1.875C525.495,138.683,509.073,152.125,473.814,152.125z M417.755,119.617h54.184c13.824,0,18.964-3.502,18.964-12.922v-3.334  c0-9.349-5.049-13.337-16.881-13.337h-56.267V119.617z M417.755,61.684h55.225c11.848,0,16.464-3.447,16.464-12.296v-3.333  c0-9.723-5.14-13.338-18.964-13.338h-52.725V61.684z"/>
<path style="fill:#FFFFFF;" d="M658.144,152.125h-53.556c-33.946,0-51.889-18.376-51.889-53.141V53.348  C552.7,18.447,570.642,0,604.588,0h53.556c33.946,0,51.889,18.447,51.889,53.348v45.637  C710.033,133.749,692.09,152.125,658.144,152.125z M604.588,32.717c-15.215,0-17.923,5.133-17.923,19.589v47.723  c0,16.583,5.529,19.381,17.923,19.381h53.556c12.395,0,17.924-2.798,17.924-19.381V52.306c0-16.629-4.696-19.589-17.924-19.589  H604.588z"/>
</svg>